<svg id="Group_1690" data-name="Group 1690" xmlns="http://www.w3.org/2000/svg" width="24" height="24" viewBox="0 0 24 24">
  <g id="Group_1687" data-name="Group 1687" transform="translate(5 2.422)">
    <path id="Path_2184" data-name="Path 2184" d="M7,7.8A3.8,3.8,0,1,0,3.2,4,3.8,3.8,0,0,0,7,7.8ZM7,1.6A2.4,2.4,0,1,1,4.6,4,2.4,2.4,0,0,1,7,1.6Z" transform="translate(-0.2 -0.2)" fill="gray"/>
    <path id="Path_2185" data-name="Path 2185" d="M7,9.2A6.807,6.807,0,0,0,.2,16v3a.8.8,0,0,0,.8.8H13a.8.8,0,0,0,.8-.8V16A6.808,6.808,0,0,0,7,9.2Zm5.4,9.2H1.6V16a5.4,5.4,0,1,1,10.8,0Z" transform="translate(-0.2 -0.2)" fill="gray"/>
  </g>
  <rect id="Rectangle_446" data-name="Rectangle 446" width="24" height="24" fill="none"/>
</svg>
