<svg xmlns="http://www.w3.org/2000/svg" width="20" height="22.655" viewBox="0 0 20 22.655">
  <g id="bookmark_2_" data-name="bookmark (2)" transform="translate(-30)">
    <path id="Path_11849" data-name="Path 11849" d="M47.013,0H32.987A2.99,2.99,0,0,0,30,2.987V22.655l7.677-3.838,7.677,3.838V11.991H50v-9A2.99,2.99,0,0,0,47.013,0ZM44.027,2.987v17.52l-6.35-3.175-6.35,3.175V2.987a1.661,1.661,0,0,1,1.659-1.659H44.531A2.97,2.97,0,0,0,44.027,2.987Zm4.646,7.677H45.354V2.987a1.659,1.659,0,0,1,3.319,0Z" fill="#3a3551"/>
  </g>
</svg>
