<svg xmlns="http://www.w3.org/2000/svg" width="21.64" height="16.545" viewBox="0 0 21.64 16.545">
  <g id="Icon_feather-camera" data-name="Icon feather-camera" transform="translate(0.5 0.5)">
    <path id="Path_2184" data-name="Path 2184" d="M22.14,18.318a1.806,1.806,0,0,1-1.876,1.727H3.376A1.806,1.806,0,0,1,1.5,18.318v-9.5A1.806,1.806,0,0,1,3.376,7.091H7.129L9.006,4.5h5.629l1.876,2.591h3.753A1.806,1.806,0,0,1,22.14,8.818Z" transform="translate(-1.5 -4.5)" fill="none" stroke="#505050" stroke-linecap="round" stroke-linejoin="round" stroke-width="1"/>
    <path id="Path_2185" data-name="Path 2185" d="M19.506,16.955a3.613,3.613,0,0,1-3.753,3.455A3.613,3.613,0,0,1,12,16.955,3.613,3.613,0,0,1,15.753,13.5,3.613,3.613,0,0,1,19.506,16.955Z" transform="translate(-5.433 -8.318)" fill="none" stroke="#505050" stroke-linecap="round" stroke-linejoin="round" stroke-width="1"/>
  </g>
</svg>
