<svg id="chat_2_" data-name="chat (2)" xmlns="http://www.w3.org/2000/svg" width="19.651" height="19.651" viewBox="0 0 19.651 19.651">
  <g id="Group_1306" data-name="Group 1306">
    <path id="Path_2161" data-name="Path 2161" d="M17.545,0H2.105A2.105,2.105,0,0,0,0,2.107V13.337a2.105,2.105,0,0,0,2.105,2.105H4.6l-.382,3.432a.7.7,0,0,0,1.167.6l4.479-4.031h7.684a2.105,2.105,0,0,0,2.105-2.105V2.107A2.105,2.105,0,0,0,17.545,0Zm.7,13.335a.7.7,0,0,1-.7.7H9.592a.7.7,0,0,0-.47.18L5.814,17.2l.265-2.378a.7.7,0,0,0-.7-.78H2.105a.7.7,0,0,1-.7-.7V2.107a.7.7,0,0,1,.7-.7h15.44a.7.7,0,0,1,.7.7V13.337Z" transform="translate(0 -0.002)" fill="gray"/>
  </g>
</svg>
