<svg xmlns="http://www.w3.org/2000/svg" width="10.181" height="10.217" viewBox="0 0 10.181 10.217">
  <path id="edit" d="M.376,10.217a.381.381,0,0,1-.262-.129A.374.374,0,0,1,0,9.825C.009,9.651.2,6.253.223,6a.151.151,0,0,1,.161-.149.269.269,0,0,1,.093.018A.823.823,0,0,1,.7,5.457L5.9.24a.815.815,0,0,1,1.156,0l2.888,2.9a.823.823,0,0,1,0,1.16l-5.2,5.217a.807.807,0,0,1-.41.222.214.214,0,0,1,0,.189.16.16,0,0,1-.132.067l-2.568.151-.183.011-.378.022-.678.04H.376Zm5.994-8.5h0L1.7,6.391V8.518H3.823L8.492,3.839,6.37,1.712Z" fill="#fff"/>
</svg>
