<svg xmlns="http://www.w3.org/2000/svg" width="27.169" height="27.17" viewBox="0 0 27.169 27.17">
  <path id="filter_6_" data-name="filter (6)" d="M26.608,0H1.561A1.061,1.061,0,0,0,.5,1.061,10.366,10.366,0,0,0,3.976,8.8l4.648,4.131a3.782,3.782,0,0,1,1.268,2.824v10.35a1.062,1.062,0,0,0,1.65.883L17.8,22.816a1.062,1.062,0,0,0,.473-.883V15.758a3.782,3.782,0,0,1,1.268-2.824L24.193,8.8a10.366,10.366,0,0,0,3.476-7.741A1.061,1.061,0,0,0,26.608,0ZM22.783,7.216l-4.648,4.132a5.906,5.906,0,0,0-1.981,4.411v5.608l-4.139,2.759V15.758a5.906,5.906,0,0,0-1.981-4.411L5.386,7.216a8.244,8.244,0,0,1-2.7-5.093H25.478a8.242,8.242,0,0,1-2.7,5.093Zm0,0" transform="translate(-0.5 0)" fill="#1fb9b3"/>
</svg>
