<svg xmlns="http://www.w3.org/2000/svg" width="24" height="25" viewBox="0 0 24 25">
  <path id="home" d="M23.855,10.874l0,0L14.062.674a2.148,2.148,0,0,0-3.125,0L1.151,10.867l-.01.01a2.373,2.373,0,0,0,0,3.25,2.157,2.157,0,0,0,1.466.671.679.679,0,0,0,.068,0h.39v7.5A2.645,2.645,0,0,0,5.656,25H9.487a.718.718,0,0,0,.7-.732V18.384a1.207,1.207,0,0,1,1.18-1.229h2.259a1.206,1.206,0,0,1,1.18,1.229v5.884a.718.718,0,0,0,.7.732h3.831a2.644,2.644,0,0,0,2.586-2.694V14.8h.362a2.152,2.152,0,0,0,1.563-.674A2.374,2.374,0,0,0,23.855,10.874Zm-1,2.218a.783.783,0,0,1-.568.245H21.226a.718.718,0,0,0-.7.732v8.237a1.206,1.206,0,0,1-1.18,1.229H16.216V18.384a2.645,2.645,0,0,0-2.586-2.694H11.37a2.645,2.645,0,0,0-2.586,2.694v5.151H5.656a1.206,1.206,0,0,1-1.18-1.229V14.069a.718.718,0,0,0-.7-.732H2.726l-.033,0a.782.782,0,0,1-.553-.244.863.863,0,0,1,0-1.183h0l9.791-10.2a.78.78,0,0,1,1.136,0l9.789,10.2,0,0A.863.863,0,0,1,22.859,13.092Zm0,0" transform="translate(-0.499)" fill="#2bd5c1"/>
</svg>
