<svg xmlns="http://www.w3.org/2000/svg" width="24.181" height="25.219" viewBox="0 0 24.181 25.219">
  <g id="Group_2573" data-name="Group 2573" transform="translate(-249.893 -1230.781)">
    <path id="Path_2597" data-name="Path 2597" d="M465.314,401.739a2.893,2.893,0,0,1-1.624-.948c-.359-.371-.747-.715-1.112-1.082a.906.906,0,0,0-.85-.266q-.935.151-1.875.269a2.214,2.214,0,0,1-2.615-1.989c-.1-.6-.208-1.2-.307-1.794a.9.9,0,0,0-.517-.7c-.57-.29-1.134-.592-1.7-.9a2.2,2.2,0,0,1-.989-3.038c.275-.577.554-1.152.844-1.722a.917.917,0,0,0,0-.891c-.286-.563-.561-1.131-.834-1.7a2.208,2.208,0,0,1,1.006-3.071c.549-.295,1.1-.595,1.652-.873a.948.948,0,0,0,.545-.762c.1-.631.2-1.263.332-1.889a2.206,2.206,0,0,1,2.66-1.833c.624.1,1.25.182,1.875.272a.832.832,0,0,0,.739-.249q.7-.69,1.416-1.37a2.2,2.2,0,0,1,3.194,0c.463.442.927.884,1.379,1.337a.929.929,0,0,0,.873.27c.623-.1,1.248-.2,1.875-.268a2.2,2.2,0,0,1,2.588,1.936c.108.6.215,1.194.308,1.794a.946.946,0,0,0,.544.762c.549.275,1.088.573,1.63.862a2.213,2.213,0,0,1,1.01,3.125c-.262.538-.515,1.081-.792,1.611a.979.979,0,0,0,0,.98c.288.552.554,1.116.822,1.678a2.2,2.2,0,0,1-.986,3.039c-.555.3-1.109.6-1.674.885a.964.964,0,0,0-.553.783c-.1.624-.2,1.247-.328,1.865a2.205,2.205,0,0,1-2.655,1.84c-.624-.1-1.25-.181-1.875-.272a.829.829,0,0,0-.741.242c-.38.374-.777.732-1.148,1.115a2.9,2.9,0,0,1-1.624.948Zm6.28-3.45a.737.737,0,0,0,.812-.611c.108-.563.228-1.127.295-1.7a2.526,2.526,0,0,1,1.553-2.163c.5-.227.974-.506,1.458-.766a.759.759,0,0,0,.371-1.128c-.278-.576-.555-1.152-.843-1.722a2.255,2.255,0,0,1,0-2.147c.281-.556.548-1.118.821-1.679a.774.774,0,0,0-.392-1.194c-.565-.3-1.13-.6-1.694-.9a2.184,2.184,0,0,1-1.19-1.6c-.125-.685-.241-1.372-.37-2.057a.742.742,0,0,0-.9-.651c-.625.087-1.251.173-1.874.273a2.318,2.318,0,0,1-2.133-.682c-.434-.437-.883-.858-1.326-1.286a.768.768,0,0,0-1.24.008q-.691.667-1.381,1.335a2.165,2.165,0,0,1-1.861.643c-.683-.09-1.365-.187-2.046-.286a.753.753,0,0,0-.944.658c-.1.539-.222,1.078-.282,1.623a2.533,2.533,0,0,1-1.565,2.181c-.492.224-.96.5-1.437.754a.761.761,0,0,0-.377,1.144c.279.575.557,1.151.843,1.722a2.25,2.25,0,0,1,0,2.125c-.282.564-.556,1.133-.832,1.7a.769.769,0,0,0,.385,1.178c.557.3,1.113.6,1.673.887a2.277,2.277,0,0,1,1.256,1.771c.1.623.212,1.244.329,1.864a.757.757,0,0,0,.972.68c.624-.095,1.25-.179,1.875-.271a2.324,2.324,0,0,1,2.082.7c.431.428.872.846,1.308,1.268a.768.768,0,0,0,1.24.008c.431-.416.871-.823,1.29-1.252a2.363,2.363,0,0,1,2.242-.7C470.345,398.131,470.99,398.2,471.594,398.289Z" transform="translate(-203.577 854.261)" fill="gray"/>
    <path id="Path_2598" data-name="Path 2598" d="M570.939,492.116c-.065.146-.123.3-.2.436a.883.883,0,0,1-.165.181q-4.682,4.683-9.363,9.365a.857.857,0,0,1-.635.326.723.723,0,0,1-.576-1.153,1.725,1.725,0,0,1,.182-.2q4.682-4.683,9.363-9.366a.87.87,0,0,1,.635-.326A.785.785,0,0,1,570.939,492.116Z" transform="translate(-303.395 746.488)" fill="gray"/>
    <path id="Path_2599" data-name="Path 2599" d="M561.806,480.112a2.665,2.665,0,1,1,2.676-2.644A2.658,2.658,0,0,1,561.806,480.112Zm.021-3.866a1.207,1.207,0,0,0-1.22,1.189,1.21,1.21,0,1,0,2.419.019A1.2,1.2,0,0,0,561.828,476.247Z" transform="translate(-302.743 762.061)" fill="gray"/>
    <path id="Path_2600" data-name="Path 2600" d="M656.1,600.657a2.664,2.664,0,1,1-2.67,2.648A2.655,2.655,0,0,1,656.1,600.657Zm-.016,3.864a1.2,1.2,0,0,0,1.22-1.188,1.21,1.21,0,1,0-2.419-.019A1.2,1.2,0,0,0,656.083,604.521Z" transform="translate(-391.2 643.952)" fill="gray"/>
  </g>
</svg>
