<svg xmlns="http://www.w3.org/2000/svg" width="27" height="29" viewBox="0 0 27 29">
  <g id="Polygon_5" data-name="Polygon 5" transform="translate(27) rotate(90)" fill="#fff">
    <path d="M 23.98365020751953 26.00000190734863 L 5.016350746154785 26.00000190734863 C 4.306100845336914 26.00000190734863 3.664430856704712 25.63608169555664 3.299890995025635 25.02652168273926 C 2.935340881347656 24.41696166992188 2.918330907821655 23.67947196960449 3.254360914230347 23.05375289916992 L 12.73800086975098 5.394542217254639 C 13.092360496521 4.73472261428833 13.75105094909668 4.340792179107666 14.50000095367432 4.340792179107666 C 15.24895095825195 4.340792179107666 15.90764141082764 4.73472261428833 16.26199150085449 5.394542217254639 L 25.74564170837402 23.05375289916992 C 26.0816707611084 23.67947196960449 26.06466102600098 24.41696166992188 25.70011138916016 25.02652168273926 C 25.3355712890625 25.63608169555664 24.69390106201172 26.00000190734863 23.98365020751953 26.00000190734863 Z" stroke="none"/>
    <path d="M 14.50000095367432 5.340791702270508 C 14.32018089294434 5.340791702270508 13.87438106536865 5.392131805419922 13.6190013885498 5.86766242980957 L 4.135360717773438 23.52688217163086 C 3.893180847167969 23.97783279418945 4.070600509643555 24.36691284179688 4.158121109008789 24.51326179504395 C 4.245641708374023 24.65961265563965 4.504470825195312 25.00000190734863 5.016351699829102 25.00000190734863 L 23.98365020751953 25.00000190734863 C 24.49553108215332 25.00000190734863 24.75436019897461 24.65961265563965 24.84188079833984 24.51326179504395 C 24.92940139770508 24.36691284179688 25.10682106018066 23.97783279418945 24.8646411895752 23.5268726348877 L 15.38099098205566 5.86766242980957 C 15.12561130523682 5.392131805419922 14.67981052398682 5.340791702270508 14.50000095367432 5.340791702270508 M 14.5 3.340795516967773 C 15.53854084014893 3.340795516967773 16.57707977294922 3.867668151855469 17.14298057556152 4.921411514282227 L 26.62663078308105 22.58062171936035 C 27.699951171875 24.5792121887207 26.25221061706543 27.00000190734863 23.98365020751953 27.00000190734863 L 5.016351699829102 27.00000190734863 C 2.747791290283203 27.00000190734863 1.300050735473633 24.5792121887207 2.373371124267578 22.58062171936035 L 11.85701179504395 4.921411514282227 C 12.42291641235352 3.867668151855469 13.46145820617676 3.340795516967773 14.5 3.340795516967773 Z" stroke="none" fill="#1fb9b3"/>
  </g>
</svg>
