<svg id="Group_1961" data-name="Group 1961" xmlns="http://www.w3.org/2000/svg" width="24" height="24.541" viewBox="0 0 24 24.541">
  <g id="Group_1960" data-name="Group 1960" transform="translate(0.904 1.321)">
    <path id="Path_2301" data-name="Path 2301" d="M12.9,9.6l-.678,1.367a.625.625,0,0,0,.268.84.653.653,0,0,0,.219.066l1.525.159,1.1,1.076a.624.624,0,0,0,.88-.013.611.611,0,0,0,.121-.181l.631-1.4,1.358-.711a.624.624,0,0,0,.267-.84.617.617,0,0,0-.132-.172L17.317,8.758l-.254-1.509a.615.615,0,0,0-.586-.52l-.023,0-.059.009a.618.618,0,0,0-.253.078l-1.334.767L13.29,7.347a.624.624,0,0,0-.7.749Zm1.257-.046-.171-.839.846.133a.636.636,0,0,0,.408-.077l.74-.426.14.846a.632.632,0,0,0,.194.357l.637.574-.761.4a.633.633,0,0,0-.284.294l-.348.783-.609-.6a.622.622,0,0,0-.369-.176l-.856-.09.384-.772A.623.623,0,0,0,14.161,9.55Z" transform="translate(-0.904 -0.899)" fill="gray"/>
    <path id="Path_2302" data-name="Path 2302" d="M4.222,7.4a.649.649,0,0,0,.2.06l2.166.232L8.138,9.216a.621.621,0,0,0,.44.185h0a.62.62,0,0,0,.568-.369l.886-1.986,1.93-1.005a.624.624,0,0,0,.258-.843.642.642,0,0,0-.132-.169l-1.61-1.464-.362-2.147A.621.621,0,0,0,9.447.9l-.212.02.031.031A.793.793,0,0,0,9.195.99L7.313,2.067,5.167,1.745a.629.629,0,0,0-.709.525.641.641,0,0,0,.008.223L4.9,4.615,3.939,6.562a.625.625,0,0,0,.283.835ZM6.168,4.569,5.856,3.1l1.483.223a.624.624,0,0,0,.4-.077l1.3-.74L9.28,3.983a.626.626,0,0,0,.2.358l1.109,1-1.325.684a.629.629,0,0,0-.282.3L8.366,7.694,7.3,6.643a.619.619,0,0,0-.369-.176L5.449,6.311,6.12,4.968A.617.617,0,0,0,6.168,4.569Z" transform="translate(-0.904 -0.899)" fill="gray"/>
    <path id="Path_2303" data-name="Path 2303" d="M21.962,11.431h0a1.575,1.575,0,0,0-1.115.486s-.734.718-1.5,1.486l-.159.159c-.711.709-1.447,1.442-1.672,1.688a.622.622,0,1,0,.887.873.382.382,0,0,0,.035-.036c.17-.186,1.064-1.082,1.785-1.8C20.986,13.519,21.7,12.8,21.7,12.8l.031-.024a.294.294,0,0,1,.213-.105.433.433,0,0,1,.292.16.439.439,0,0,1,.093.33.561.561,0,0,1-.1.332l-.013.023c-.245.3-3.2,3.838-5.158,6.129A3.07,3.07,0,0,1,14.727,20.9H8.534a2.708,2.708,0,0,0-1.988.682L5.077,23.035a.623.623,0,0,0,.39,1.083H5.5a.615.615,0,0,0,.42-.165c.013-.012.024-.022.032-.031l1.474-1.442a1.4,1.4,0,0,1,1.11-.327h6.2a4.323,4.323,0,0,0,3.272-1.7c2.014-2.356,5.164-6.139,5.2-6.186l.012-.019a1.814,1.814,0,0,0,.354-1.077A1.686,1.686,0,0,0,21.962,11.431Z" transform="translate(-0.904 -0.899)" fill="gray"/>
    <path id="Path_2304" data-name="Path 2304" d="M8.178,16.572h7.616a1.01,1.01,0,0,1-.106.742.926.926,0,0,1-.654.528L10,17.835a.623.623,0,1,0,0,1.246h4.991l.1-.009v0a2.007,2.007,0,0,0,1.7-1.171,2.122,2.122,0,0,0-.062-2.317.626.626,0,0,0-.5-.252l-8.053,0a4.911,4.911,0,0,0-3.23.926L1.13,19.377a.625.625,0,0,0,.341,1.1.582.582,0,0,0,.059,0,.616.616,0,0,0,.4-.143l3.8-3.115A3.754,3.754,0,0,1,8.178,16.572Z" transform="translate(-0.904 -0.899)" fill="gray"/>
  </g>
  <rect id="Rectangle_463" data-name="Rectangle 463" width="24" height="24" fill="none"/>
</svg>
